<svg xmlns="http://www.w3.org/2000/svg" version="1.1" xmlns:xlink="http://www.w3.org/1999/xlink" xmlns:svgjs="http://svgjs.dev/svgjs" width="1024px" height="1024px"><svg xmlns="http://www.w3.org/2000/svg" viewBox="0 0 50 50" width="1024px" height="1024px"><path d="M 15 5 C 9.4886661 5 5 9.4886661 5 15 L 5 35 C 5 40.511334 9.4886661 45 15 45 L 35 45 C 40.511334 45 45 40.511334 45 35 L 45 15 C 45 9.4886661 40.511334 5 35 5 L 15 5 z M 15 7 L 35 7 C 39.430666 7 43 10.569334 43 15 L 43 35 C 43 39.430666 39.430666 43 35 43 L 15 43 C 10.569334 43 7 39.430666 7 35 L 7 15 C 7 10.569334 10.569334 7 15 7 z M 18.597656 16 C 17.938656 16.519 17.561438 16.953375 17.273438 17.359375 C 17.032438 17.715375 17.080719 18.194094 17.386719 18.496094 C 17.427719 18.537094 17.470672 18.577141 17.513672 18.619141 C 17.814672 18.917141 18.283719 18.963516 18.636719 18.728516 L 18.882812 18.564453 L 18.484375 19.960938 C 18.241841 19.808394 17.922484 19.813953 17.693359 20.009766 C 17.412359 20.249766 17.380094 20.675031 17.621094 20.957031 C 17.621094 20.957031 18.716906 22.257844 20.628906 22.339844 C 20.636906 22.339844 20.644344 22.339844 20.652344 22.339844 C 22.591344 22.352844 23.705078 20.939453 23.705078 20.939453 C 23.936078 20.649453 23.889609 20.226141 23.599609 19.994141 C 23.451821 19.87642 23.269692 19.833425 23.095703 19.855469 C 22.992863 19.640277 22.949787 19.563524 22.855469 19.345703 C 22.706469 19.047703 22.745031 18.688641 22.957031 18.431641 C 23.069031 18.303641 23.137625 18.187094 23.140625 17.996094 C 23.140625 17.996094 23.109547 17.901344 23.060547 17.777344 C 23.016547 17.644344 22.911344 17.539094 22.777344 17.496094 C 22.643344 17.452094 22.496813 17.474641 22.382812 17.556641 C 22.111812 17.744641 21.7985 17.892141 21.4375 17.994141 L 20.869141 17.994141 C 20.464141 17.296141 19.914016 16.630813 19.166016 16.007812 L 18.597656 16 z M 30.021484 16 C 29.081484 16.032 29.080078 18.683594 29.080078 18.683594 C 29.080078 18.683594 28.568375 20.200656 27.234375 20.472656 L 26.619141 20.175781 C 26.619141 20.175781 25.646422 20.5955 24.857422 20.9375 C 24.684422 21.0125 24.576937 21.187 24.585938 21.375 C 24.594938 21.563 24.719438 21.725203 24.898438 21.783203 C 25.494438 21.937203 26.308953 22.066844 27.251953 21.964844 C 29.230953 21.749844 30.021484 19.28125 30.021484 19.28125 C 30.021484 19.28125 30.322125 19.283953 30.328125 19.876953 C 30.334125 20.469953 30.328125 21.964844 30.328125 21.964844 L 30.945312 21.964844 L 30.945312 19.568359 C 30.945312 18.987359 31.083609 18.414438 31.349609 17.898438 C 31.365609 17.867438 31.381484 17.837594 31.396484 17.808594 C 31.558484 17.496594 31.527359 17.119891 31.318359 16.837891 C 31.001359 16.461891 30.583484 15.981 30.021484 16 z M 34.535156 16 C 33.957156 16 33.472109 16.441437 33.412109 17.023438 C 33.298109 18.132437 33.118859 19.888234 33.005859 20.990234 C 32.978859 21.248234 33.061422 21.505266 33.232422 21.697266 C 33.403422 21.889266 33.646344 22 33.902344 22 L 39.097656 22 C 39.354656 22 39.598531 21.888313 39.769531 21.695312 C 39.941531 21.501313 40.022141 21.242375 39.994141 20.984375 C 39.872141 19.878375 39.679594 18.121625 39.558594 17.015625 C 39.495594 16.437625 39.010547 16 38.435547 16 L 34.535156 16 z M 10.439453 16.007812 C 10.470453 16.838812 10.606641 17.553187 11.056641 18.117188 C 10.545641 18.797187 10.028 19.730812 9.5 21.132812 C 9.5 21.132813 10.340484 22.275891 12.271484 22.337891 C 14.202484 22.399891 15.042969 21.132812 15.042969 21.132812 C 14.717969 20.310812 14.289531 19.384187 13.519531 18.117188 C 14.036531 17.460187 14.202766 16.761813 14.134766 16.007812 C 13.264766 15.957813 12.815484 16.183328 12.271484 16.611328 C 11.691484 16.124328 11.230453 15.959812 10.439453 16.007812 z M 35.220703 17.337891 C 35.346984 17.359781 35.454828 17.455594 35.486328 17.589844 C 35.486328 17.589844 35.581797 17.995313 35.841797 18.320312 C 35.988797 18.504312 36.193422 18.667969 36.482422 18.667969 C 36.771422 18.667969 36.978 18.504313 37.125 18.320312 C 37.385 17.995312 37.480469 17.589844 37.480469 17.589844 C 37.522469 17.410844 37.699953 17.299797 37.876953 17.341797 C 38.053953 17.383797 38.163094 17.563188 38.121094 17.742188 C 38.121094 17.742188 37.990719 18.297234 37.636719 18.740234 C 37.374719 19.068234 36.997422 19.332031 36.482422 19.332031 C 35.967422 19.332031 35.590125 19.068234 35.328125 18.740234 C 34.974125 18.297234 34.845703 17.742188 34.845703 17.742188 C 34.803703 17.563187 34.912844 17.384797 35.089844 17.341797 C 35.133844 17.331297 35.178609 17.330594 35.220703 17.337891 z M 20.585938 20.267578 C 21.059368 20.297245 21.362032 20.604815 21.539062 20.84375 C 21.289714 20.932762 21.006624 20.995317 20.683594 20.996094 C 20.278809 20.977339 19.949693 20.873309 19.658203 20.75 C 19.913032 20.487611 20.235527 20.24562 20.585938 20.267578 z M 12.484375 24.986328 A 1.0001 1.0001 0 0 0 12.341797 25 L 10 25 A 1.0001 1.0001 0 1 0 10 27 L 11.5 27 L 11.5 32 A 1.0001 1.0001 0 1 0 13.5 32 L 13.5 27 L 15 27 A 1.0001 1.0001 0 1 0 15 25 L 12.667969 25 A 1.0001 1.0001 0 0 0 12.484375 24.986328 z M 33.990234 24.986328 A 1.0001 1.0001 0 0 0 33 25.996094 C 33 25.996094 32.991405 27.831588 32.984375 29.472656 C 32.980175 30.405083 33.348654 31.303247 34.007812 31.964844 C 34.007812 31.964844 34.009766 31.964844 34.009766 31.964844 C 34.009766 31.964844 34.009766 31.966797 34.009766 31.966797 C 34.667869 32.626652 35.562548 33 36.496094 33 L 36.498047 33 C 38.42028 33 40 31.420327 40 29.498047 L 40 26 A 1.0001 1.0001 0 1 0 38 26 L 38 29.498047 C 38 30.339767 37.339767 31 36.498047 31 L 36.496094 31 C 36.094561 31 35.709456 30.839566 35.425781 30.554688 A 1.0001 1.0001 0 0 0 35.425781 30.552734 C 35.142164 30.268517 34.982567 29.885077 34.984375 29.482422 A 1.0001 1.0001 0 0 0 34.984375 29.480469 C 34.991422 27.83963 35 26.003906 35 26.003906 A 1.0001 1.0001 0 0 0 33.990234 24.986328 z M 18 25 A 1.0001 1.0001 0 0 0 17 26 L 17 28.832031 A 1.0001 1.0001 0 0 0 17 29.158203 L 17 32 A 1.0001 1.0001 0 0 0 18 33 L 22 33 A 1.0001 1.0001 0 1 0 22 31 L 19 31 L 19 30 L 21.974609 30 A 1.0001 1.0001 0 1 0 21.974609 28 L 19 28 L 19 27 L 22 27 A 1.0001 1.0001 0 1 0 22 25 L 18 25 z M 24.996094 25 A 1.0001 1.0001 0 0 0 23.974609 26.003906 L 24 32.003906 A 1.0001 1.0001 0 1 0 26 31.996094 L 25.988281 28.996094 L 27.203125 30.603516 A 1.0001 1.0001 0 0 0 28.800781 30.599609 L 30 29 L 30 32 A 1.0001 1.0001 0 1 0 32 32 L 32 26 A 1.0001 1.0001 0 0 0 30.199219 25.400391 L 27.996094 28.337891 L 25.771484 25.396484 A 1.0001 1.0001 0 0 0 24.996094 25 z"></path></svg><style>@media (prefers-color-scheme: light) { :root { filter: none; } }
@media (prefers-color-scheme: dark) { :root { filter: invert(100%); } }
</style></svg>